<svg xmlns="http://www.w3.org/2000/svg" xml:space="preserve" width="440" height="280">
  <style>
  .line {
    fill:none;
    stroke:#ced4da;
    stroke-width:2;
    stroke-opacity:1
  }
  </style>
  <g style="display:inline">
    <path d="m194.575 37.072-25.524 33.305-50.996.122-25.34 34.666-50.887-.258-24.918 33.928 25.134 34.156-24.713 33.795 24.882 33.452 50.946.648 25.3-34.012 50.528-.205 26.174 34.058 50.956.769 24.994-34.724 50.47-.035 25.172 33.778 50.664.388 25.464-34.062-25.708-33.65 25.153-35.145-24.908-33.67-51.019.33-25.357-34.15-51.108.718-24.757-33.73z" class="line"/>
    <path d="m42.013 172.98 51.368.332 24.856-34.485 51.076.401 24.907-35.054 51.213.943 24.871 33.48 51.281.244 25.276 34.633 50.497-.229" class="line"/>
    <path d="m168.894 206.667 25.73-33.379 50.545-.42 26.177 33.82M92.814 105.229l25.619 33.502m50.775-68.153 25.156 33.706m75.793-32.951-24.72 33.56m101.313-.195-25.32 34.055m.043 68.059 25.504-33.143m-102.061-.719 25.426-34.146m-101.056.517 25.634 33.811m-101.53.306 25.407 33.24" class="line"/>
  </g>
</svg>
