<?xml version="1.0" encoding="UTF-8"?>
<svg width="128" height="128" viewBox="0 0 32 32" xmlns="http://www.w3.org/2000/svg" xmlns:xlink="http://www.w3.org/1999/xlink">
  <g fill="none" stroke="#000">
    <g stroke-width="2">
      <path d="m18.942 18.346s-1.308 0.58614-1.8574 1.4293c-0.37814 0.58035-1.0936 2.5466-1.049 3.6396 0.11528 2.8261 1.9814 4.577 1.9814 4.577"/>
      <path d="m5.7401 11.847 12.798 6.5106"/>
      <path d="m10.017 2.9923 11.042 4.209"/>
      <path d="m3.0167 20.992 14.775 6.8431"/>
      <path d="m6.1074 12.036s-3.0908-1.0432-3.993 3.067c-0.60638 2.7627 1.3593 6.3155 1.3593 6.3155"/>
      <path d="m10.22 3.0548s-3.3546-0.50636-4.2568 3.6039c-0.60638 2.7627 0.18646 5.3804 0.18646 5.3804"/>
      <path d="m21.122 7.0484s-2.9853 0.403-3.8875 4.5133c-0.60638 2.7627 1.1858 6.5936 1.1858 6.5936"/>
    </g>
    <g stroke-width="1.5">
      <path d="m18.017 17.992c2.0025 0.89996 3.3353 0.22348 4.4065-1.5631 0 0 1.3662-2.9568 0.88802-5.9184-0.46171-2.8594-2.351-3.5734-2.351-3.5734"/>
      <path d="m19.231 18.278c2.2242 1.4118 2.3116 1.7295 2.7507 3.0636 0 0 0.5785 1.8909-0.47826 3.988-1.1305 2.2434-1.621 3.0178-4.0679 2.6066"/>
      <path d="m23.38 10.085c0.51618-0.04047 0.73665-0.23223 1.6197-0.08502 0.60201 0.14362 1.2169 0.52838 1.3545 0.9444 0 0 0.55878 0.90454 0.3725 2.5847-0.18628 1.6802-1.0273 3.7129-1.0273 3.7129s-0.42554 1.0172-1.4342 1.1532c-1.3258 0.17882-2.0232-1.7958-2.0232-1.7958"/>
    </g>
    <g stroke-width="1px">
      <path d="m26.755 12.961c0.39759-0.36294 0.52344-0.77987 1.2077-1.0859 0.77938-0.22799 1.0941-0.19026 1.549-7e-3 0.7494 0.43118 0.86639 1.338 0.82337 2.2385 0 0-0.17747 1.2974-1.2926 1.8161-1.1151 0.51868-2.4628-1.6387-2.4628-1.6387"/>
      <path d="m24.849 18.251c0.4099 0.49523 1.2218 0.8665 1.3589 1.6906 0.11811 0.7916-0.2304 1.97-0.97457 2.5696-0.52108 0.35164-1.2552 0.27095-2.1663-0.19339-0.60816-0.31191-0.94726-0.84575-1.0557-1.3245"/>
      <path d="m23.895 18.341c-0.36271 0.16448-1.07 0.483-1.4321 0.92549-0.43884 0.58158-0.5712 1.2411-0.41823 1.848"/>
      <path d="m28.279 16.362c0.55449 0.11542 1.185 0.32184 1.4526 0.95501 0.30394 0.59112 0.21852 1.1683-0.0068 1.8649-0.21966 0.65175-0.74411 0.98779-1.4416 1.0958-0.70677 0.05924-1.5756-0.18813-2.0848-0.57513-1.3315-2.0513 0.1885-3.6491 2.0806-3.3406z"/>
    </g>
  </g>
</svg>
